<svg height='100px' width='100px'  fill="#2c3e50" xmlns="http://www.w3.org/2000/svg" data-name="Layer 1" viewBox="0 0 100 100" x="0px" y="0px"><title>Artboard 356</title><path d="M92.94,61.47l-.16-6.72a58.79,58.79,0,0,0-.38-7.13A14.41,14.41,0,0,0,82,36.36a15,15,0,0,0-3.93-.48L74.71,36,68,36.23h0a1.78,1.78,0,1,0,0,3.54h.3L75,40l3.29.13a10.24,10.24,0,0,1,2.69.57,9.61,9.61,0,0,1,6.27,8,11.48,11.48,0,0,1,0,1.32l0,1.67-.08,3.37L87,61.78l-.28,13.44-.11,6.72a8.7,8.7,0,0,1-1.39,4.56,8.45,8.45,0,0,1-3.55,3.1,8,8,0,0,1-2.24.7,14.71,14.71,0,0,1-2.74.1l-26.89-.11-26.89.13a13.44,13.44,0,0,1-2.64-.14,8.77,8.77,0,0,1-2.23-.76,8.62,8.62,0,0,1-3.48-3.19,8.84,8.84,0,0,1-1.28-4.7l-.12-6.72-.28-13.44-.16-6.72c0-2.13-.22-4.77,0-6.29a9.71,9.71,0,0,1,6.5-7.87,10.39,10.39,0,0,1,2.71-.51L25.27,40,32,39.72a1.74,1.74,0,1,0,0-3.44l-.32,0L25,36c-1.14,0-2.17-.1-3.42-.1a14.05,14.05,0,0,0-3.91.56A14.38,14.38,0,0,0,7.54,48a17.41,17.41,0,0,0-.19,2l0,1.68-.08,3.36-.17,6.72L6.78,75.22l-.12,6.72a15.44,15.44,0,0,0,2.23,8.19,15.28,15.28,0,0,0,6.29,5.79,14.87,14.87,0,0,0,4.11,1.38,21.1,21.1,0,0,0,4,.28l26.89.13L77,97.59a21.4,21.4,0,0,0,4-.34,16.21,16.21,0,0,0,4.08-1.49,15.44,15.44,0,0,0,8.17-14.13l-.11-6.72Z"></path><path d="M52.55,3.32a3.72,3.72,0,0,0-5.13,0A122.12,122.12,0,0,0,33.09,19.79c-.14.18.26.85.9,1.52s1.3,1.1,1.48,1l.06,0a123.17,123.17,0,0,0,12.33-9.47,192.89,192.89,0,0,0,.41,52c0,.29.79.51,1.72.51s1.69-.22,1.72-.51v-.08a193,193,0,0,0,.4-51.93,121.29,121.29,0,0,0,12.35,9.52h0c.21.12.87-.32,1.52-1S67,20,66.92,19.75l0-.05A122,122,0,0,0,52.55,3.32Z"></path></svg>